<svg width="43" height="38" viewBox="0 0 43 38" fill="none" xmlns="http://www.w3.org/2000/svg">
<g clip-path="url(#clip0_333_7)">
<path d="M2.81012 38C2.11478 38 1.41813 37.7474 0.873098 37.2371C-0.252255 36.1829 -0.296694 34.4276 0.772457 33.318C7.5102 26.3291 7.5102 15.3812 0.772457 8.39232C-0.296694 7.28271 -0.252255 5.52872 0.873098 4.47324C1.99845 3.41776 3.77732 3.46286 4.84778 4.57247C13.6519 13.7032 13.6519 28.0071 4.84778 37.1365C4.29491 37.71 3.55382 37.9987 2.81012 37.9987V38Z" fill="#5D00FF"/>
<path d="M40.1899 38C39.4462 38 38.7051 37.7113 38.1522 37.1378C29.3481 28.0071 29.3481 13.7032 38.1522 4.57248C39.2214 3.46286 41.0016 3.41905 42.1269 4.47324C43.2523 5.52744 43.2967 7.28271 42.2275 8.39232C35.4885 15.3812 35.4885 26.3291 42.2275 33.318C43.2967 34.4276 43.2523 36.1816 42.1269 37.2371C41.5832 37.7474 40.8865 38 40.1899 38Z" fill="#5D00FF"/>
<path d="M21.6091 21.0027C15.2086 21.0027 10.1334 19.0425 6.97562 17.3762C5.51959 16.6081 4.97064 14.8206 5.75093 13.3849C6.52992 11.9493 8.34278 11.408 9.79881 12.1774C12.4076 13.555 16.6359 15.1789 21.9738 15.1041C26.8961 15.0332 30.8093 13.5293 33.2273 12.2792C34.6899 11.5227 36.4975 12.0794 37.2648 13.5215C38.032 14.9636 37.4673 16.746 36.0048 17.5025C31.7125 19.7217 26.8895 20.9318 22.0614 21.0014C21.9111 21.004 21.7608 21.0053 21.6118 21.0053L21.6091 21.0027Z" fill="#5D00FF"/>
<path d="M15.2661 6.5855C16.6275 6.5855 17.7312 5.11128 17.7312 3.29275C17.7312 1.47421 16.6275 0 15.2661 0C13.9047 0 12.8011 1.47421 12.8011 3.29275C12.8011 5.11128 13.9047 6.5855 15.2661 6.5855Z" fill="#5D00FF"/>
<path d="M27.7339 6.5855C29.0953 6.5855 30.1989 5.11128 30.1989 3.29275C30.1989 1.47421 29.0953 0 27.7339 0C26.3725 0 25.2688 1.47421 25.2688 3.29275C25.2688 5.11128 26.3725 6.5855 27.7339 6.5855Z" fill="#5D00FF"/>
</g>
<defs>
<clipPath id="clip0_333_7">
<rect width="43" height="38" fill="white"/>
</clipPath>
</defs>
</svg>
